<svg xmlns="http://www.w3.org/2000/svg" xmlns:xlink="http://www.w3.org/1999/xlink" xmlns:lucid="lucid" width="1025.21" height="942.5"><g transform="translate(-176.94380710379988 -282.1666666666668)" lucid:page-tab-id=".Q4MUjXso07N"><path d="M0 0h1360v1760H0z" fill="#fff"/><path d="M177.44 287.67a5 5 0 0 1 5-5h1014.2a5 5 0 0 1 5 5v730a5 5 0 0 1-5 5H182.45a5 5 0 0 1-5-5z" stroke="#333" fill-opacity="0"/><use xlink:href="#a" transform="matrix(1,0,0,1,185.44380710379988,290.6666666666668) translate(463.4138997395833 19.014973958333332)"/><path d="M645.4 1064.42a19.75 19.75 0 0 1 19.74-19.75 19.75 19.75 0 0 1 19.75 19.75 19.75 19.75 0 0 1-19.76 19.75 19.75 19.75 0 0 1-19.75-19.75" stroke="#333" fill="#fff"/><path d="M625.14 1049.67a5 5 0 0 1 5-5h70a5 5 0 0 1 5 5v148a5 5 0 0 1-5 5h-70a5 5 0 0 1-5-5z" fill="none"/><path d="M665.14 1084.17v55.3l40 63.2m-40-63.2l-40 63.2m0-98.75h80" stroke="#333" fill="none"/><use xlink:href="#b" transform="matrix(1,0,0,1,545.1362163344827,1202.6656299921501) translate(82.10169270833333 18.011979166666666)"/><path d="M1159.45 822.66c0 33.14-35.82 60-80 60-44.2 0-80-26.86-80-60 0-33.13 35.8-60 80-60 44.18 0 80 26.87 80 60z" stroke="#fff" fill="#3278cc"/><use xlink:href="#c" transform="matrix(1,0,0,1,1023.4459102723566,786.6645933176335) translate(12.801822916666666 42.01432291666667)"/><use xlink:href="#d" transform="matrix(1,0,0,1,1023.4459102723566,786.6645933176335) translate(61.34427083333333 42.01432291666667)"/><path d="M415.45 822.66c0 33.14-35.82 60-80 60-44.2 0-80-26.86-80-60 0-33.13 35.8-60 80-60 44.18 0 80 26.87 80 60z" stroke="#fff" fill="#3278cc"/><use xlink:href="#e" transform="matrix(1,0,0,1,279.4459102723563,786.6645933176335) translate(34.053776041666666 32.01197916666666)"/><use xlink:href="#f" transform="matrix(1,0,0,1,279.4459102723563,786.6645933176335) translate(21.04830729166666 52.016666666666666)"/><path d="M705.54 1103.12l316.66-237.35" stroke="#333" fill="none"/><path d="M703.02 1105.6l-.57-.76.56-.42h1.6zm2.8-2.1l-.68.5v-.58h-.8l.92-.7zM1023 865.77l-.52.4-.57-.77.3-.23z" stroke="#333" stroke-width=".05" fill="#333"/><path d="M624.78 1103.07l-238.94-232.7" stroke="#333" fill="none"/><path d="M626.84 1104.42l.78.75-.67.68-1.47-1.43zm-1.02-1h-.68v.66l-.7-.68.66-.68zM386.18 870.04l-.66.68-.46-.45.85-.5z" stroke="#333" stroke-width=".05" fill="#333"/><path d="M821.9 504c0 33.14-35.83 60-80 60-44.2 0-80-26.86-80-60s35.8-60 80-60c44.17 0 80 26.86 80 60z" stroke="#fff" fill="#3278cc"/><use xlink:href="#g" transform="matrix(1,0,0,1,685.8874230609772,468) translate(21.64166666666666 32.01197916666666)"/><use xlink:href="#h" transform="matrix(1,0,0,1,685.8874230609772,468) translate(26.126171874999997 52.016666666666666)"/><path d="M416.15 641.8l210.3 461.16" stroke="#333" fill="none"/><path d="M416.6 641.6l-.67.3.02-.56v-.4l-.04-.83z" stroke="#333" stroke-width=".05" fill="#333"/><path d="M626.45 1102.95l1.46 3.2" stroke="#333" fill="none"/><path d="M618.67 400.67c0 33.13-35.82 60-80 60-44.2 0-80-26.87-80-60 0-33.14 35.8-60 80-60 44.18 0 80 26.86 80 60z" stroke="#fff" fill="#3278cc"/><use xlink:href="#i" transform="matrix(1,0,0,1,482.66666666666674,364.6666666666667) translate(33.133463541666664 32.01197916666666)"/><use xlink:href="#j" transform="matrix(1,0,0,1,482.66666666666674,364.6666666666667) translate(24.818359374999993 52.016666666666666)"/><path d="M415.45 641.33c0 33.14-35.82 60-80 60-44.2 0-80-26.86-80-60 0-33.13 35.8-60 80-60 44.18 0 80 26.87 80 60z" stroke="#fff" fill="#3278cc"/><use xlink:href="#k" transform="matrix(1,0,0,1,279.4459102723563,605.3322966588167) translate(17.322656249999994 22.009635416666665)"/><use xlink:href="#l" transform="matrix(1,0,0,1,279.4459102723563,605.3322966588167) translate(6.722916666666663 42.01432291666667)"/><use xlink:href="#m" transform="matrix(1,0,0,1,279.4459102723563,605.3322966588167) translate(13.774609374999997 62.019010416666674)"/><use xlink:href="#n" transform="matrix(1,0,0,1,279.4459102723563,605.3322966588167) translate(38.477734375 62.019010416666674)"/><path d="M415.45 400.67c0 33.13-35.82 60-80 60-44.2 0-80-26.87-80-60 0-33.14 35.8-60 80-60 44.18 0 80 26.86 80 60z" stroke="#fff" fill="#3278cc"/><use xlink:href="#o" transform="matrix(1,0,0,1,279.4459102723563,364.6666666666667) translate(22.412630208333333 32.01197916666666)"/><use xlink:href="#p" transform="matrix(1,0,0,1,279.4459102723563,364.6666666666667) translate(32.03151041666666 52.016666666666666)"/><path d="M254.95 400.67" stroke="#333" fill="none"/><path stroke="#333" stroke-width=".05" fill="#333"/><path stroke="#333" stroke-width=".05" fill="#333"/><path d="M665.03 1043.68L538.77 461.65" stroke="#333" fill="none"/><path d="M665.63 1044.2l-.47-.03h-.04l-.46.03-.1-.43.93-.2zM538.66 461.17h.5l.08.4-.93.2-.12-.62zM335.92 580.33h-.95v-5.22h.95zm0-10.45h-.95v-10.45h.95zm0-15.67h-.95v-10.44h.95zm0-15.67h-.95v-6.64h.95zm0-31.35h-.95v-10.45h.95zm0-15.67h-.95v-10.44h.95zm0-15.67h-.95v-5.22h.95z" stroke="#333" stroke-width=".05" fill="#333"/><path d="M335.92 580.85l-.47-.02h-.48v-.5h.95z" fill="#333"/><path stroke="#333" stroke-width=".05" fill="#333"/><path d="M345.86 479.25l-.82.48-9.12-15.8v6.74h-.95v-6.73l-9.1 15.8-.83-.5 10.4-18.02z" stroke="#333" stroke-width=".05" fill="#333"/><use xlink:href="#q" transform="matrix(1,0,0,1,280.7296016786063,510.1098332252418) translate(0.005000000000002558 17.4375)"/><path d="M665.2 1043.67L741.82 565" stroke="#333" fill="none"/><path d="M665.7 1043.73l-.1.47-.44-.03h-.04l-.47.03.1-.62zM741.88 564.5h.5l-.1.58-.94-.15.07-.44z" stroke="#333" stroke-width=".05" fill="#333"/><path d="M665.43 1043.76l203.06-280.2" stroke="#333" fill="none"/><path d="M665.82 1044.03l-.13.18-.54-.03h-.04l-.6.04.53-.73zM868.77 763.16h.6l-.5.7-.78-.56.1-.15zM1114.2 767.46h-.95v-4.93h.95zm0-9.86h-.95v-9.86h.95zm0-14.78h-.95v-9.86h.95zm0-14.8h-.95v-9.84h.95zm0-14.77h-.95v-9.85h.95zm0-14.78h-.95v-9.86h.95zm0-14.8h-.95v-9.84h.95zm0-14.77h-.95v-9.85h.95zm0-14.78h-.95v-9.86h.95zm0-14.78h-.95v-9.86h.95zm0-14.8h-.95v-9.84h.95zm0-14.77h-.95v-9.85h.95zm0-14.78h-.95v-9.87h.95zm0-14.8h-.95v-9.85h.95zm0-14.78h-.95v-9.85h.95zm0-14.78h-.95v-9.86h.95zm0-14.78h-.95V526h.95zm0-14.8h-.95v-9.84h.95zm0-14.77h-.95v-9.86h.95zm0-14.8h-.95v-9.85h.95zm0-14.77h-.95v-9.86h.95zm0-14.8h-.95v-9.84h.95zm0-14.77h-.95v-9.86h.95zm0-14.78h-.95v-9.86h.95zm-1.36-25.38l.76 1.8.45 1.9.15 1.95v4.94h-.95v-4.92l-.14-1.82-.4-1.75-.7-1.67-.3-.5.8-.5zm-9.16-6.66l1.9.46 1.8.75.58.35-.5.8-.5-.3-1.67-.7-1.77-.4-1.82-.16h-4.9v-.95h4.95zm-470.14.8h-4.93v-.95h4.94zm14.78 0h-9.85v-.95h9.85zm14.8 0h-9.87v-.95h9.86zm14.77 0h-9.86v-.95h9.85zm14.78 0h-9.86v-.95h9.86zm14.78 0h-9.85v-.95h9.86zm14.8 0h-9.87v-.95h9.85zm14.77 0h-9.85v-.95h9.85zm14.8 0h-9.87v-.95h9.86zm14.77 0h-9.85v-.95h9.85zm14.8 0h-9.87v-.95h9.86zm14.77 0h-9.85v-.95h9.85zm14.8 0h-9.87v-.95h9.86zm14.77 0h-9.85v-.95h9.84zm14.8 0h-9.87v-.95h9.86zm14.77 0h-9.84v-.95h9.85zm14.8 0h-9.86v-.95h9.86zm133.06 0h-9.85v-.95h9.86zm14.8 0h-9.87v-.95h9.85zm14.77 0h-9.85v-.95h9.85zm14.8 0h-9.87v-.95h9.86zm14.77 0h-9.85v-.95h9.85zm14.8 0h-9.87v-.95h9.86zm14.77 0h-9.85v-.95h9.85zm-103.5 0h-5.65v-.95h5.66z" stroke="#333" stroke-width=".05" fill="#333"/><path d="M637.73 391.08l-15.8 9.1h6.74v.96h-6.73l15.78 9.12-.47.82-18.03-10.4 18.03-10.43z" stroke="#333" stroke-width=".05" fill="#333"/><path d="M1114.2 768.13l-.95-.35v-.34h.95z" fill="#333"/><path stroke="#333" stroke-width=".05" fill="#333"/><use xlink:href="#q" transform="matrix(1,0,0,1,873.28369140625,389.7770182291667) translate(0.005000000000002558 17.4375)"/><path d="M1079.92 761.66h-.95v-5.1h.95zm0-10.2h-.95V741.3h.95zm0-15.27h-.95V726h.95zm0-15.3h-.95v-10.2h.95zm0-15.3h-.95v-10.18h.95zm0-15.27h-.95v-10.2h.95zm0-15.3h-.95v-10.18h.95zm0-15.28h-.95v-10.2h.95zm0-15.3h-.95v-10.18h.95zm0-15.27h-.95v-10.2h.95zm0-15.3h-.95V603.7h.95zm0-15.28h-.95v-10.2h.95zm0-15.28h-.95v-10.2h.95zm0-15.3h-.95v-10.18h.95zm0-15.28h-.95v-10.2h.95zm0-15.28h-.95v-10.2h.95zm-1.36-26.05l.75 1.82.47 1.9.15 1.93v5.12h-.95v-5.08l-.14-1.83-.42-1.76-.7-1.66-.3-.5.8-.5zm-9.16-6.65l1.9.46 1.8.76.58.34-.5.8-.5-.3-1.67-.7-1.75-.4-1.82-.15h-4.9v-.95h4.93zm-232.7.8h-4.9v-.95h4.9zm14.73 0h-9.8v-.95h9.8zm14.73 0h-9.82v-.95h9.82zm14.73 0h-9.83v-.95h9.82zm14.72 0h-9.82v-.95h9.82zm14.73 0h-9.82v-.95h9.82zm14.73 0h-9.82v-.95h9.82zm12.2 0h-7.3v-.95h7.3zm120.35 0h-9.82v-.95h9.83z" stroke="#333" stroke-width=".05" fill="#333"/><path d="M840.9 495.48l-15.77 9.12h6.72v.95h-6.72l15.78 9.1-.46.83-18.04-10.4 18.04-10.42z" stroke="#333" stroke-width=".05" fill="#333"/><path d="M1079.92 762.18h-.95v-.53h.95z" fill="#333"/><path stroke="#333" stroke-width=".05" fill="#333"/><use xlink:href="#q" transform="matrix(1,0,0,1,937.28369140625,494.18318770387316) translate(0.005000000000002558 17.4375)"/><path d="M948.78 702.66c0 33.14-35.82 60-80 60s-80-26.86-80-60c0-33.13 35.82-60 80-60s80 26.87 80 60z" stroke="#fff" fill="#3278cc"/><g><use xlink:href="#r" transform="matrix(1,0,0,1,812.7792436056895,666.6645933176335) translate(18.45286458333333 32.01197916666666)"/><use xlink:href="#h" transform="matrix(1,0,0,1,812.7792436056895,666.6645933176335) translate(26.126171874999997 52.016666666666666)"/></g><path d="M1042.76 768.5h-.95v-4.48h.96zm0-8.97h-.95v-8.97h.96zm0-13.46h-.95v-8.97h.96zm0-13.46h-.95v-8.96h.96zm0-17.95v4.5h-.95v-4.47l-.08-1.13h.95z" stroke="#333" stroke-width=".05" fill="#333"/><path stroke="#333" stroke-width=".05" fill="#333"/><path d="M1042.76 768.83l-.95.35v-.7h.96z" fill="#333"/><path stroke="#333" stroke-width=".05" fill="#333"/><g><use xlink:href="#q" transform="matrix(1,0,0,1,948.8633245173373,691.7749448801335) translate(0.005000000000002558 17.4375)"/></g><defs><path fill="#333" d="M605 22C247 22 24-145 68-462h297c-14 151 94 226 259 226 162 0 283-76 302-190 17-102-68-149-225-189l-158-41c-235-59-372-183-336-404 43-269 290-450 614-450 328 0 536 182 498 445h-294c8-119-76-188-229-188-156 0-256 72-273 172-30 154 195 185 336 221 239 61 415 185 374 436-45 271-266 446-628 446" id="s"/><path fill="#333" d="M36 0l185-1118h300L336 0H36zm359-1264c-91 0-153-69-139-154 14-84 99-154 190-154 89 0 153 67 139 154-14 86-100 154-190 154" id="t"/><path fill="#333" d="M490 22C212 20 43-104 37-315l281-29c11 104 65 146 186 146 109 0 214-47 222-128 5-51-29-84-119-104l-186-40c-195-42-289-149-277-303 14-232 242-359 510-359 274 2 415 119 430 308l-267 27c-11-76-56-120-162-120-98 0-203 45-211 128-6 50 24 83 118 104l194 40c196 41 291 138 279 289-15 238-265 378-545 378" id="u"/><path fill="#333" d="M776-1118l-37 229H530l-93 562c-12 72 14 104 85 104 23 0 74-7 97-13l5 225C555 8 488 16 426 16 201 16 99-97 132-301l98-588H76l37-229h155l44-266h300l-44 266h208" id="v"/><path fill="#333" d="M552 24C254 24 71-146 71-432c0-377 264-705 643-705 236 0 413 123 413 326 0 251-270 329-766 342-10 155 35 265 213 267 113 0 207-50 245-134l269 36C1015-105 814 24 552 24zM392-650c368-7 456-43 456-146 0-71-63-115-165-115-165 0-251 126-291 261" id="w"/><path fill="#333" d="M35 0l186-1118h278l-23 203c87-158 215-220 340-220 150 0 232 87 258 250 89-176 240-250 390-250 212 0 348 148 307 391L1648 0h-301l118-707c21-127-40-177-131-177-124 0-216 90-235 206L986 0H696l119-715c18-110-37-169-130-169-113 0-217 83-240 218L335 0H35" id="x"/><path fill="#333" d="M441 19C184 19 19-186 81-558c63-382 303-574 550-574 189 0 259 113 285 202h10l31-188h299L1071 0H776l29-179h-14C733-87 623 19 441 19zm133-241c154 0 263-135 296-336 34-204-31-334-185-334-159 0-264 139-296 334-33 197 29 336 185 336" id="y"/><g id="a"><use transform="matrix(0.010091145833333334,0,0,0.010091145833333334,0,0)" xlink:href="#s"/><use transform="matrix(0.010091145833333334,0,0,0.010091145833333334,13.522135416666668,0)" xlink:href="#t"/><use transform="matrix(0.010091145833333334,0,0,0.010091145833333334,19.1328125,0)" xlink:href="#u"/><use transform="matrix(0.010091145833333334,0,0,0.010091145833333334,30.697265625,0)" xlink:href="#v"/><use transform="matrix(0.010091145833333334,0,0,0.010091145833333334,38.083984375,0)" xlink:href="#w"/><use transform="matrix(0.010091145833333334,0,0,0.010091145833333334,50.27408854166667,0)" xlink:href="#x"/><use transform="matrix(0.010091145833333334,0,0,0.010091145833333334,69.13444010416667,0)" xlink:href="#y"/></g><path fill="#333" d="M507 0L206-1490h200c85 478 172 817 237 1337 237-524 428-852 670-1337h202L726 0H507" id="z"/><path fill="#333" d="M535 24C259 24 94-144 94-427c0-392 272-715 610-715 216 0 356 119 356 305 0 244-237 344-790 350-18 199 49 349 276 352 142 0 260-66 317-173l167 47C947-85 756 24 535 24zM294-623c447-4 586-57 586-218 0-85-78-141-194-141-220 0-342 177-392 359" id="A"/><path fill="#333" d="M356-664L245 0H65l186-1118h173l-32 197c96-152 219-211 366-211 232 0 366 145 319 428L960 0H779l117-701c29-174-48-269-198-269-165 0-310 115-342 306" id="B"/><path fill="#333" d="M492 24C248 24 94-147 94-425c0-352 212-707 569-707 222 0 274 136 303 198h12l92-556h181L1004 0H829l30-173h-19C792-103 700 24 492 24zm32-161c268 0 407-295 407-549 0-175-80-285-247-285-266 0-408 283-408 536 0 174 79 298 248 298" id="C"/><path fill="#333" d="M528 24C258 24 94-156 94-433c0-355 229-699 603-699 270 0 436 178 436 458 0 359-234 698-605 698zm4-161c275 0 420-287 420-533 0-170-77-301-260-301-271 0-418 288-418 536 0 168 77 298 258 298" id="D"/><path fill="#333" d="M66 0l185-1118h174l-28 172h12c78-136 219-209 411-185l-30 181c-211-47-398 67-428 250L246 0H66" id="E"/><g id="b"><use transform="matrix(0.008072916666666667,0,0,0.008072916666666667,0,0)" xlink:href="#z"/><use transform="matrix(0.008072916666666667,0,0,0.008072916666666667,10.567447916666667,0)" xlink:href="#A"/><use transform="matrix(0.008072916666666667,0,0,0.008072916666666667,20.085416666666667,0)" xlink:href="#B"/><use transform="matrix(0.008072916666666667,0,0,0.008072916666666667,29.86171875,0)" xlink:href="#C"/><use transform="matrix(0.008072916666666667,0,0,0.008072916666666667,39.993229166666666,0)" xlink:href="#A"/><use transform="matrix(0.008072916666666667,0,0,0.008072916666666667,49.51119791666667,0)" xlink:href="#C"/><use transform="matrix(0.008072916666666667,0,0,0.008072916666666667,59.64270833333333,0)" xlink:href="#D"/><use transform="matrix(0.008072916666666667,0,0,0.008072916666666667,69.56432291666667,0)" xlink:href="#E"/></g><path fill="#fff" d="M87 0l247-1490h901l-28 167H496l-85 512h643l-27 167H384L277 0H87" id="F"/><path fill="#fff" d="M481 24C202 24 45-202 104-557s293-575 571-575c216 0 263 132 291 193h15l29-179h181L1006 0H831l28-173h-21C788-107 693 24 481 24zm56-161c204 0 342-174 383-422s-41-412-245-412c-215 0-350 183-388 412-39 235 39 422 250 422" id="G"/><path fill="#fff" d="M33 0l23-134 752-806 2-11H211l27-167h839l-24 143-732 797-2 11h620L912 0H33" id="H"/><path fill="#fff" d="M535 24C259 24 94-144 94-427c0-392 272-715 610-715 216 0 356 119 356 305 0 244-237 344-790 350-18 199 49 349 276 352 142 0 260-66 317-173l167 47C947-85 756 24 535 24zM294-623c447-4 586-57 586-218 0-85-78-141-194-141-220 0-342 177-392 359" id="I"/><path fill="#fff" d="M66 0l185-1118h174l-28 172h12c78-136 219-209 411-185l-30 181c-211-47-398 67-428 250L246 0H66" id="J"/><g id="c"><use transform="matrix(0.008072916666666667,0,0,0.008072916666666667,0,0)" xlink:href="#F"/><use transform="matrix(0.008072916666666667,0,0,0.008072916666666667,9.106250000000001,0)" xlink:href="#G"/><use transform="matrix(0.008072916666666667,0,0,0.008072916666666667,19.25390625,0)" xlink:href="#H"/><use transform="matrix(0.008072916666666667,0,0,0.008072916666666667,28.1421875,0)" xlink:href="#I"/><use transform="matrix(0.008072916666666667,0,0,0.008072916666666667,37.66015624999999,0)" xlink:href="#J"/></g><path fill="#fff" d="M492-1490L245 0H65l247-1490h180" id="K"/><path fill="#fff" d="M528 24C258 24 94-156 94-433c0-355 229-699 603-699 270 0 436 178 436 458 0 359-234 698-605 698zm4-161c275 0 420-287 420-533 0-170-77-301-260-301-271 0-418 288-418 536 0 168 77 298 258 298" id="L"/><path fill="#fff" d="M456 442C197 442 73 327 25 209l155-84c33 60 86 160 280 160 184 0 332-89 363-272l37-218-16 4C793-134 707-18 498-18 260-18 96-170 96-443c0-341 216-689 568-689 222 0 274 139 301 198l21-5 30-179h175L999 35c-48 288-275 407-543 407zm75-620c274 0 401-267 401-512 0-170-80-281-247-281-260 0-408 269-408 518 0 167 83 275 254 275" id="M"/><path fill="#fff" d="M66 0l185-1118h180L246 0H66zm307-1301c-71 0-117-55-106-119s74-119 145-119c65 0 117 50 106 118s-78 120-145 120" id="N"/><path fill="#fff" d="M356-664L245 0H65l186-1118h173l-32 197c96-152 219-211 366-211 232 0 366 145 319 428L960 0H779l117-701c29-174-48-269-198-269-165 0-310 115-342 306" id="O"/><g id="d"><use transform="matrix(0.008072916666666667,0,0,0.008072916666666667,0,0)" xlink:href="#K"/><use transform="matrix(0.008072916666666667,0,0,0.008072916666666667,4.004166666666667,0)" xlink:href="#L"/><use transform="matrix(0.008072916666666667,0,0,0.008072916666666667,13.92578125,0)" xlink:href="#M"/><use transform="matrix(0.008072916666666667,0,0,0.008072916666666667,24.065364583333334,0)" xlink:href="#N"/><use transform="matrix(0.008072916666666667,0,0,0.008072916666666667,28.077604166666667,0)" xlink:href="#O"/></g><g id="e"><use transform="matrix(0.008072916666666667,0,0,0.008072916666666667,0,0)" xlink:href="#F"/><use transform="matrix(0.008072916666666667,0,0,0.008072916666666667,9.106250000000001,0)" xlink:href="#G"/><use transform="matrix(0.008072916666666667,0,0,0.008072916666666667,19.25390625,0)" xlink:href="#H"/><use transform="matrix(0.008072916666666667,0,0,0.008072916666666667,28.1421875,0)" xlink:href="#I"/><use transform="matrix(0.008072916666666667,0,0,0.008072916666666667,37.66015624999999,0)" xlink:href="#J"/></g><path fill="#fff" d="M528 24C258 24 94-156 94-433c0-354 228-699 603-699 222 0 381 120 410 314l-176 39c-14-114-95-192-238-192-272 0-419 288-419 536 0 167 76 298 258 298 155 0 277-90 329-211l166 58C935-93 745 24 528 24" id="P"/><path fill="#fff" d="M492 24C248 24 94-147 94-425c0-352 212-707 569-707 222 0 274 136 303 198h12l92-556h181L1004 0H829l30-173h-19C792-103 700 24 492 24zm32-161c268 0 407-295 407-549 0-175-80-285-247-285-266 0-408 283-408 536 0 174 79 298 248 298" id="Q"/><path fill="#fff" d="M451 24C217 22 71-78 61-277l174-29c11 123 90 172 219 172 161 0 280-83 297-181 11-71-30-117-135-143l-179-44c-195-48-280-153-253-316 31-186 223-314 455-314 233 4 337 107 366 275l-165 30c-18-80-65-152-204-152-138 0-256 75-272 174-13 77 32 118 158 149l162 40c195 48 278 154 252 313C904-113 708 24 451 24" id="R"/><path fill="#fff" d="M691-1118l-25 154H437L325-290c-17 103 16 144 108 144 23 0 63-6 94-12L538-6c-36 12-87 20-136 20-196 0-290-109-260-290l114-688H88l25-154h169l44-266h180l-44 266h229" id="S"/><g id="f"><use transform="matrix(0.008072916666666667,0,0,0.008072916666666667,0,0)" xlink:href="#P"/><use transform="matrix(0.008072916666666667,0,0,0.008072916666666667,9.453385416666668,0)" xlink:href="#G"/><use transform="matrix(0.008072916666666667,0,0,0.008072916666666667,19.601041666666667,0)" xlink:href="#Q"/><use transform="matrix(0.008072916666666667,0,0,0.008072916666666667,29.732552083333335,0)" xlink:href="#G"/><use transform="matrix(0.008072916666666667,0,0,0.008072916666666667,39.880208333333336,0)" xlink:href="#R"/><use transform="matrix(0.008072916666666667,0,0,0.008072916666666667,48.598958333333336,0)" xlink:href="#S"/><use transform="matrix(0.008072916666666667,0,0,0.008072916666666667,54.02395833333334,0)" xlink:href="#J"/><use transform="matrix(0.008072916666666667,0,0,0.008072916666666667,59.98177083333334,0)" xlink:href="#L"/></g><path fill="#fff" d="M87 0l247-1490h510c351 0 476 196 432 460-33 197-146 351-346 417L1163 0H943L728-579c-116 2-237 0-355 1L277 0H87zm314-747h311c238 0 346-110 375-283 31-185-52-293-281-293H496" id="T"/><path fill="#fff" d="M65 0l186-1118h175l-31 195c80-148 212-215 337-215 153 0 236 96 255 228 75-143 223-228 382-228 199 0 341 131 298 390L1543 0h-181l126-756c27-162-65-218-177-218-160 0-274 111-297 250L894 0H714l128-773c21-127-57-201-174-201-136 0-277 97-307 277L245 0H65" id="U"/><path fill="#fff" d="M389 0L147-1118h188c55 314 135 617 168 951 141-329 323-637 482-951h205L578 0H389" id="V"/><g id="g"><use transform="matrix(0.008072916666666667,0,0,0.008072916666666667,0,0)" xlink:href="#T"/><use transform="matrix(0.008072916666666667,0,0,0.008072916666666667,10.397916666666667,0)" xlink:href="#I"/><use transform="matrix(0.008072916666666667,0,0,0.008072916666666667,19.91588541666667,0)" xlink:href="#U"/><use transform="matrix(0.008072916666666667,0,0,0.008072916666666667,34.39869791666667,0)" xlink:href="#L"/><use transform="matrix(0.008072916666666667,0,0,0.008072916666666667,43.99739583333334,0)" xlink:href="#V"/><use transform="matrix(0.008072916666666667,0,0,0.008072916666666667,52.96640625000001,0)" xlink:href="#I"/><use transform="matrix(0.008072916666666667,0,0,0.008072916666666667,62.484375000000014,0)" xlink:href="#J"/></g><g id="h"><use transform="matrix(0.008072916666666667,0,0,0.008072916666666667,0,0)" xlink:href="#P"/><use transform="matrix(0.008072916666666667,0,0,0.008072916666666667,9.453385416666668,0)" xlink:href="#L"/><use transform="matrix(0.008072916666666667,0,0,0.008072916666666667,19.375,0)" xlink:href="#O"/><use transform="matrix(0.008072916666666667,0,0,0.008072916666666667,29.151302083333334,0)" xlink:href="#S"/><use transform="matrix(0.008072916666666667,0,0,0.008072916666666667,34.41484375,0)" xlink:href="#G"/><use transform="matrix(0.008072916666666667,0,0,0.008072916666666667,44.5625,0)" xlink:href="#S"/><use transform="matrix(0.008072916666666667,0,0,0.008072916666666667,49.82604166666667,0)" xlink:href="#L"/></g><path fill="#fff" d="M87 0l247-1490h908l-28 167H496l-80 487h669l-28 167H387l-83 502h727L1004 0H87" id="W"/><g id="i"><use transform="matrix(0.008072916666666667,0,0,0.008072916666666667,0,0)" xlink:href="#W"/><use transform="matrix(0.008072916666666667,0,0,0.008072916666666667,9.945833333333335,0)" xlink:href="#Q"/><use transform="matrix(0.008072916666666667,0,0,0.008072916666666667,20.077343750000004,0)" xlink:href="#N"/><use transform="matrix(0.008072916666666667,0,0,0.008072916666666667,24.089583333333337,0)" xlink:href="#S"/><use transform="matrix(0.008072916666666667,0,0,0.008072916666666667,29.353125000000006,0)" xlink:href="#G"/><use transform="matrix(0.008072916666666667,0,0,0.008072916666666667,39.50078125,0)" xlink:href="#J"/></g><path fill="#fff" d="M698 20c-339 0-559-226-559-600 0-470 305-930 790-930 306 0 529 181 531 489h-190c-8-202-157-313-348-313-373 0-599 380-599 749 0 281 158 429 382 429 202 0 399-111 474-313h191C1267-166 997 20 698 20" id="X"/><g id="j"><use transform="matrix(0.008072916666666667,0,0,0.008072916666666667,0,0)" xlink:href="#X"/><use transform="matrix(0.008072916666666667,0,0,0.008072916666666667,12.069010416666668,0)" xlink:href="#L"/><use transform="matrix(0.008072916666666667,0,0,0.008072916666666667,21.990625,0)" xlink:href="#O"/><use transform="matrix(0.008072916666666667,0,0,0.008072916666666667,31.766927083333336,0)" xlink:href="#S"/><use transform="matrix(0.008072916666666667,0,0,0.008072916666666667,37.030468750000004,0)" xlink:href="#G"/><use transform="matrix(0.008072916666666667,0,0,0.008072916666666667,47.17812500000001,0)" xlink:href="#S"/><use transform="matrix(0.008072916666666667,0,0,0.008072916666666667,52.44166666666668,0)" xlink:href="#L"/></g><path fill="#fff" d="M507 0L206-1490h200c85 478 172 817 237 1337 237-524 428-852 670-1337h202L726 0H507" id="Y"/><path fill="#fff" d="M443 14C219 14 87-123 134-408l117-710h180L317-423c-28 171 49 275 206 275s300-105 332-300l110-670h181L961 0H787l35-209C722-47 590 14 443 14" id="Z"/><g id="k"><use transform="matrix(0.008072916666666667,0,0,0.008072916666666667,0,0)" xlink:href="#Y"/><use transform="matrix(0.008072916666666667,0,0,0.008072916666666667,11.407031250000001,0)" xlink:href="#N"/><use transform="matrix(0.008072916666666667,0,0,0.008072916666666667,15.419270833333336,0)" xlink:href="#R"/><use transform="matrix(0.008072916666666667,0,0,0.008072916666666667,24.138020833333336,0)" xlink:href="#Z"/><use transform="matrix(0.008072916666666667,0,0,0.008072916666666667,33.92239583333334,0)" xlink:href="#G"/><use transform="matrix(0.008072916666666667,0,0,0.008072916666666667,44.07005208333334,0)" xlink:href="#K"/><use transform="matrix(0.008072916666666667,0,0,0.008072916666666667,48.07421875000001,0)" xlink:href="#N"/><use transform="matrix(0.008072916666666667,0,0,0.008072916666666667,52.08645833333334,0)" xlink:href="#H"/><use transform="matrix(0.008072916666666667,0,0,0.008072916666666667,60.97473958333334,0)" xlink:href="#G"/><use transform="matrix(0.008072916666666667,0,0,0.008072916666666667,71.12239583333334,0)" xlink:href="#J"/></g><path fill="#fff" d="M524-1490L277 0H87l247-1490h190" id="aa"/><path fill="#fff" d="M780-1118l-24 146H497L317 116C281 334 148 448-56 448c-43 0-82-5-117-17l45-161c143 34 239 0 264-153L316-972H89l24-146h227l13-77c43-287 254-417 541-345l-50 154c-23-5-81-8-121-8-107 0-167 63-189 196l-13 80h259" id="ab"/><path fill="#fff" d="M340 418l17-105h118c73 0 101-17 109-65s-11-66-87-66h-82l48-162C232-7 94-179 94-433c0-354 228-699 603-699 222 0 381 120 410 314l-176 39c-14-114-95-192-238-192-272 0-419 288-419 536 0 167 76 298 258 298 155 0 277-90 329-211l166 58C940-105 767 10 566 23l-10 63c126 5 179 52 162 159-19 119-95 173-259 173H340" id="ac"/><path fill="#fff" d="M528 24C258 24 94-156 94-433c0-355 229-699 603-699 270 0 436 178 436 458 0 359-234 698-605 698zm4-161c275 0 420-287 420-533 0-170-77-301-260-301-271 0-418 288-418 536 0 168 77 298 258 298zm338-1176c-99 0-179-83-229-83-37 0-59 42-67 79H448c25-123 92-208 197-208 104 0 160 85 227 85 34 0 53-25 69-81h123c-25 129-98 208-194 208" id="ad"/><g id="l"><use transform="matrix(0.008072916666666667,0,0,0.008072916666666667,0,0)" xlink:href="#aa"/><use transform="matrix(0.008072916666666667,0,0,0.008072916666666667,4.440104166666667,0)" xlink:href="#O"/><use transform="matrix(0.008072916666666667,0,0,0.008072916666666667,14.216406250000002,0)" xlink:href="#ab"/><use transform="matrix(0.008072916666666667,0,0,0.008072916666666667,19.899739583333336,0)" xlink:href="#L"/><use transform="matrix(0.008072916666666667,0,0,0.008072916666666667,29.82135416666667,0)" xlink:href="#J"/><use transform="matrix(0.008072916666666667,0,0,0.008072916666666667,36.31197916666667,0)" xlink:href="#U"/><use transform="matrix(0.008072916666666667,0,0,0.008072916666666667,50.79479166666667,0)" xlink:href="#G"/><use transform="matrix(0.008072916666666667,0,0,0.008072916666666667,60.942447916666666,0)" xlink:href="#ac"/><use transform="matrix(0.008072916666666667,0,0,0.008072916666666667,70.39583333333333,0)" xlink:href="#ad"/><use transform="matrix(0.008072916666666667,0,0,0.008072916666666667,80.31744791666667,0)" xlink:href="#I"/><use transform="matrix(0.008072916666666667,0,0,0.008072916666666667,89.83541666666667,0)" xlink:href="#R"/></g><g id="m"><use transform="matrix(0.008072916666666667,0,0,0.008072916666666667,0,0)" xlink:href="#Q"/><use transform="matrix(0.008072916666666667,0,0,0.008072916666666667,10.131510416666668,0)" xlink:href="#L"/></g><g id="n"><use transform="matrix(0.008072916666666667,0,0,0.008072916666666667,0,0)" xlink:href="#P"/><use transform="matrix(0.008072916666666667,0,0,0.008072916666666667,9.453385416666668,0)" xlink:href="#L"/><use transform="matrix(0.008072916666666667,0,0,0.008072916666666667,19.375,0)" xlink:href="#O"/><use transform="matrix(0.008072916666666667,0,0,0.008072916666666667,29.151302083333334,0)" xlink:href="#S"/><use transform="matrix(0.008072916666666667,0,0,0.008072916666666667,34.41484375,0)" xlink:href="#G"/><use transform="matrix(0.008072916666666667,0,0,0.008072916666666667,44.5625,0)" xlink:href="#S"/><use transform="matrix(0.008072916666666667,0,0,0.008072916666666667,49.82604166666667,0)" xlink:href="#L"/></g><g id="o"><use transform="matrix(0.008072916666666667,0,0,0.008072916666666667,0,0)" xlink:href="#aa"/><use transform="matrix(0.008072916666666667,0,0,0.008072916666666667,4.440104166666667,0)" xlink:href="#O"/><use transform="matrix(0.008072916666666667,0,0,0.008072916666666667,14.216406250000002,0)" xlink:href="#ab"/><use transform="matrix(0.008072916666666667,0,0,0.008072916666666667,19.899739583333336,0)" xlink:href="#L"/><use transform="matrix(0.008072916666666667,0,0,0.008072916666666667,29.82135416666667,0)" xlink:href="#J"/><use transform="matrix(0.008072916666666667,0,0,0.008072916666666667,36.31197916666667,0)" xlink:href="#U"/><use transform="matrix(0.008072916666666667,0,0,0.008072916666666667,50.79479166666667,0)" xlink:href="#G"/><use transform="matrix(0.008072916666666667,0,0,0.008072916666666667,60.942447916666666,0)" xlink:href="#J"/></g><path fill="#fff" d="M356-670L245 0H65l247-1490h180l-94 565c97-150 219-207 362-207 226 0 365 139 318 422L960 0H779l116-695c29-174-53-275-208-275-158 0-299 107-331 300" id="ae"/><g id="p"><use transform="matrix(0.008072916666666667,0,0,0.008072916666666667,0,0)" xlink:href="#R"/><use transform="matrix(0.008072916666666667,0,0,0.008072916666666667,8.71875,0)" xlink:href="#I"/><use transform="matrix(0.008072916666666667,0,0,0.008072916666666667,18.23671875,0)" xlink:href="#O"/><use transform="matrix(0.008072916666666667,0,0,0.008072916666666667,28.013020833333336,0)" xlink:href="#ae"/><use transform="matrix(0.008072916666666667,0,0,0.008072916666666667,37.78932291666667,0)" xlink:href="#G"/></g><path d="M174-520v-126l944-476v196L406-588v12l712 338v194" id="af"/><path d="M158 0v-1118h180V0H158zm91-1301c-68 0-125-53-125-119s57-119 125-119c69 0 126 53 126 119s-57 119-126 119" id="ag"/><path d="M338-670V0H158v-1118h173l1 207c72-158 192-221 342-221 226 0 378 139 378 422V0H872v-695c0-172-96-275-252-275-161 0-282 109-282 300" id="ah"/><path d="M613 24c-304 0-509-231-509-576 0-350 205-580 509-580 216 0 392 114 453 309l-173 49c-33-115-133-197-280-197-223 0-326 196-326 419 0 220 103 415 326 415 150 0 252-85 285-206l172 49C1010-95 832 24 613 24" id="ai"/><path d="M338-1490V0H158v-1490h180" id="aj"/><path d="M537 14c-226 0-379-139-379-422v-710h180v695c0 172 97 275 253 275 160 0 281-109 281-300v-670h181V0H879v-209C806-46 684 14 537 14" id="ak"/><path d="M577 24c-279 0-473-224-473-580 0-354 195-576 474-576 218 0 287 134 324 193h14v-551h180V0H922v-173h-20C865-111 790 24 577 24zm27-161c203 0 314-172 314-421 0-247-108-413-314-413-212 0-317 181-317 413 0 235 108 421 317 421" id="al"/><path d="M628 24c-324 0-524-230-524-574 0-343 198-582 503-582 237 0 487 146 487 559v75H286c9 234 145 362 343 362 132 0 231-58 273-172l174 48C1024-91 857 24 628 24zM287-650h624c-17-190-120-322-304-322-192 0-309 151-320 322" id="am"/><path d="M1181-520L237-44v-194l712-338v-12L237-926v-196l944 476v126" id="an"/><g id="q"><use transform="matrix(0.0087890625,0,0,0.0087890625,0,0)" xlink:href="#af"/><use transform="matrix(0.0087890625,0,0,0.0087890625,11.9091796875,0)" xlink:href="#af"/><use transform="matrix(0.0087890625,0,0,0.0087890625,23.818359375,0)" xlink:href="#ag"/><use transform="matrix(0.0087890625,0,0,0.0087890625,28.177734375,0)" xlink:href="#ah"/><use transform="matrix(0.0087890625,0,0,0.0087890625,38.8125,0)" xlink:href="#ai"/><use transform="matrix(0.0087890625,0,0,0.0087890625,49.095703125,0)" xlink:href="#aj"/><use transform="matrix(0.0087890625,0,0,0.0087890625,53.455078125,0)" xlink:href="#ak"/><use transform="matrix(0.0087890625,0,0,0.0087890625,64.0986328125,0)" xlink:href="#al"/><use transform="matrix(0.0087890625,0,0,0.0087890625,75.1201171875,0)" xlink:href="#am"/><use transform="matrix(0.0087890625,0,0,0.0087890625,85.6142578125,0)" xlink:href="#an"/><use transform="matrix(0.0087890625,0,0,0.0087890625,97.5234375,0)" xlink:href="#an"/></g><path fill="#fff" d="M-41 0l788-1490h220L1268 0h-192l-80-416H383L169 0H-41zm509-582h497c-56-293-77-375-126-756-162 359-224 468-371 756" id="ao"/><g id="r"><use transform="matrix(0.008072916666666667,0,0,0.008072916666666667,0,0)" xlink:href="#ao"/><use transform="matrix(0.008072916666666667,0,0,0.008072916666666667,11.407031250000001,0)" xlink:href="#Q"/><use transform="matrix(0.008072916666666667,0,0,0.008072916666666667,21.538541666666667,0)" xlink:href="#N"/><use transform="matrix(0.008072916666666667,0,0,0.008072916666666667,25.55078125,0)" xlink:href="#P"/><use transform="matrix(0.008072916666666667,0,0,0.008072916666666667,35.00416666666667,0)" xlink:href="#N"/><use transform="matrix(0.008072916666666667,0,0,0.008072916666666667,39.01640625,0)" xlink:href="#L"/><use transform="matrix(0.008072916666666667,0,0,0.008072916666666667,48.93802083333334,0)" xlink:href="#O"/><use transform="matrix(0.008072916666666667,0,0,0.008072916666666667,58.714322916666674,0)" xlink:href="#G"/><use transform="matrix(0.008072916666666667,0,0,0.008072916666666667,68.86197916666667,0)" xlink:href="#J"/></g></defs></g></svg>